<svg xmlns="http://www.w3.org/2000/svg" viewBox="0 0 200 200" xml:space="preserve"><path fill="#F4B85C" d="M110.966 122.769c-1.198-1.795-5.478-9.013-3.642-18.06H95.487s1.213 8.03 0 10.819c-.726 1.671-2.566 4.84-3.927 7.117-18.017 3.195-27.315 15.023-27.315 31.057h72.616c-.001-15.601-10.523-27.52-25.895-30.933z"/><path fill="#D94C52" d="m112.628 123.181-.015-.021a.15.15 0 0 1-.017.01l-.047-.015-.053.076c-10.39 7.211-22.908.177-23.306-.051l-.021-.025c-16.434 3.792-24.923 15.244-24.923 30.546h72.616c-.001-14.781-10.163-26.452-24.234-30.52z"/><path fill="#EA6A78" d="M100.553 126.435c-6.188-.347-11.117-3.113-11.364-3.254l-.021-.025c-16.434 3.792-24.923 15.244-24.923 30.546h36.308v-27.267z"/><path fill="#F4B85C" d="M121.174 88.09c0 12.661-8.87 26.386-20.26 26.386-11.388 0-20.983-13.725-20.983-26.386 0-12.657 9.233-26.765 20.623-26.765 11.387 0 20.62 14.108 20.62 26.765z"/><path fill-rule="evenodd" clip-rule="evenodd" fill="#EA6A78" d="M106.491 104.626c0 .255-.345.462-.772.462h-8.746c-.426 0-.771-.206-.771-.462 0-.255.345-.462.771-.462h8.746c.427 0 .772.207.772.462z"/><path fill="#59402D" d="M126.313 71.077c-1.317-3.475-5.923-10.918-13.985-12.694-3.069-.677-7.308-1.043-11.68-1.064v-.003l-.121.002-.122-.002v.003c-4.37.022-8.609.388-11.68 1.064-8.061 1.776-12.667 9.219-13.984 12.694-1.317 3.475 5.313 15.908 5.313 15.908 4.112-.657 6.991-13.615 6.991-13.615 3.974 2.715 8.803 3.582 13.36 3.601v.006c.04 0 .081-.003.122-.003l.121.003v-.007c4.557-.019 9.386-.886 13.36-3.601 0 0 2.88 12.958 6.991 13.615.001.001 6.63-12.432 5.314-15.907z"/><path fill="#D55698" d="M112.025 51.1c-.29-.065-.566-.137-.849-.206l.338-1.114a1.521 1.521 0 1 0-2.913-.884l-.369 1.215c-7.294-2.106-12.683-4.417-22.813 1.309 0 0-21.617 12.657-1.111 16.181s42.614 16.981 45.978 8.971S124.2 53.823 112.025 51.1z"/><path fill="#E87FB0" d="M100.553 48.104c-4.272-.705-8.765-.284-15.133 3.316 0 0-21.617 12.657-1.111 16.181 5.429.933 10.968 2.564 16.244 4.306V48.104z"/><path fill="#39485D" d="M100.553 124.538c-2.865-.468-3.79-2.352-4.606-3.697-1.692-2.787.476-7.423.476-7.423-18.41 4.739-20.551 15.589-20.551 15.589l6.135-3.508c3.347 11.433 13.048 15.332 18.546 15.205v-16.166z"/><path fill="#59402D" d="M102.31 113.355a1.018 1.018 0 1 1-2.036 0v-5.127a1.018 1.018 0 1 1 2.036 0v5.127z"/><path fill-rule="evenodd" clip-rule="evenodd" fill="#59402D" d="M101.092 101.665s-2.595 2.512-7.204 1.274c0 0 1.816 1.357 6.823.343l.381-1.617zM101.292 101.665s2.595 2.512 7.204 1.274c0 0-1.816 1.357-6.823.343l-.381-1.617z"/><path fill="#323E50" d="M107.035 113.136s1.296 4.279.699 6.93c-.389 1.73-2.724 4.583-5.767 4.583-4.005 0-5.082-2.262-6.02-3.807-1.692-2.787.476-7.423.476-7.423-18.41 4.739-20.551 15.589-20.551 15.589l6.135-3.508c-.211-.721 4.559 16.384 19.335 15.172 5.354.439 27.796-8.86 19.832-14.008-7.964-5.148-14.139-13.528-14.139-13.528z"/></svg>