<svg xmlns="http://www.w3.org/2000/svg" viewBox="0 0 512 512" style="enable-background:new 0 0 512 512" xml:space="preserve"><path style="fill:#9b735a" d="M88.84 505c-11.532 0-20.913-9.381-20.913-20.913V27.913C67.927 16.381 77.308 7 88.84 7h334.32c11.532 0 20.913 9.381 20.913 20.913v456.174c0 11.532-9.381 20.913-20.913 20.913H88.84z"/><path style="fill:#8c5f50" d="M423.16 440.076H195.575c-33.259 0-60.221-26.962-60.221-60.221V27.913C135.354 16.381 144.735 7 156.267 7H88.84c-11.55 0-20.913 9.363-20.913 20.913v456.174c0 11.55 9.363 20.913 20.913 20.913h334.32c11.55 0 20.913-9.363 20.913-20.913v-64.924c0 11.531-9.381 20.913-20.913 20.913z"/><path style="fill:#a0d755" d="M94.79 37.37h319.36v437.1H94.79z"/><path style="fill:#4aa9ff" d="M94.789 197.386h61.11l177.299-55.928h80.948V37.372H94.789z"/><path style="fill:#7f4505" d="m355.727 385.165-.003-180.333c0-57.55-44.329-104.371-98.817-104.371s-98.817 46.82-98.817 104.371v181.494l-.453 36.263h197.876l.214-37.424z"/><path style="fill:#724f4f" d="m355.727 385.165-.003-180.333c0-57.55-44.329-104.371-98.817-104.371s-98.817 46.82-98.817 104.371v181.494l-.453 36.263h197.876l.214-37.424z"/><path style="fill:#5b4343" d="M229.099 204.832c0-44.338 26.315-82.302 63.313-97.398a93.707 93.707 0 0 0-35.505-6.972c-54.488 0-98.817 46.82-98.817 104.371v181.494l-.453 36.263h71.01l.453-36.263-.001-181.495z"/><path style="fill:#5b5d6e" d="m163.799 378.547-2.78 9.167a90.838 90.838 0 0 0-2.85 15.028l-.328 4.101a94.693 94.693 0 0 0-.168 5.506v62.121h197.632l.46-96.841-191.966.918z"/><path style="fill:#3d4054" d="m185.701 406.843.328-4.101a90.838 90.838 0 0 1 2.85-15.028l2.78-9.167h-27.861l-2.78 9.167a90.838 90.838 0 0 0-2.85 15.028l-.328 4.101a94.693 94.693 0 0 0-.168 5.506v62.121h27.861v-62.121c0-1.759.057-3.611.168-5.506z"/><path style="fill:#fcd495" d="M217.188 440.076c-12.257 0-22.847 9.139-24.632 21.259l-.066 13.135h59.25l-.038-13.135c-1.785-12.12-12.374-21.259-24.631-21.259h-9.883z"/><path style="fill:#f2b25f" d="m214.379 474.47.066-13.135c1.484-10.081 9.068-18.08 18.629-20.492a25.935 25.935 0 0 0-2.367-.472c-.3-.045-.599-.092-.902-.126-.27-.032-.542-.058-.814-.08a24.39 24.39 0 0 0-1.919-.089h-9.883c-12.257 0-22.847 9.139-24.632 21.259l-.066 13.135h21.888z"/><path style="fill:#724f4f" d="M355.724 204.832c0-41.387-22.926-77.224-56.068-94.09v293.353l56.031-10.094.04-8.837-.003-180.332z"/><path style="fill:#fcd495" d="M265.062 406.891c-36.271 0-70.059-8.694-95.139-24.48l-6.161-3.878 3.281-6.499c12.459-24.676 35.596-40.127 60.558-40.526v-39.317c-20.6-8.104-35.311-29.084-35.311-53.625v-32.724c0-31.541 24.3-57.201 54.169-57.201h10.019c29.869 0 54.169 25.66 54.169 57.201V402.09l-6.528 1.222c-12.683 2.375-25.825 3.579-39.057 3.579z"/><path style="fill:#f2b25f" d="M227.602 290.382v41.126c-24.962.399-48.099 15.851-60.558 40.526l-3.281 6.499 6.161 3.878c5.391 3.393 11.205 6.437 17.338 9.159 11.666-22.76 32.449-37.573 55.314-39.796a5.545 5.545 0 0 0 5.009-5.521v-55.871h-19.983z"/><path style="fill:#f2b25f" d="M238.192 268.966c-7.96-8.022-12.491-18.923-12.524-30.224V205.841c0-27.306 18.218-50.19 42.49-55.847a51.39 51.39 0 0 0-11.679-1.354H246.46c-29.869 0-54.169 25.66-54.169 57.201v32.724c0 24.541 14.711 45.522 35.311 53.625h51.738c-.001.001-24.221-6.165-41.148-23.224z"/><path d="M423.16 0H88.84C73.449 0 60.927 12.522 60.927 27.913v456.174C60.927 499.478 73.449 512 88.84 512h334.32c15.391 0 27.913-12.522 27.913-27.913V27.913C451.073 12.522 438.551 0 423.16 0zm12.913 484.087c0 7.12-5.793 12.913-12.913 12.913H88.84c-7.12 0-12.913-5.793-12.913-12.913V27.913C75.927 20.793 81.72 15 88.84 15h334.32c7.12 0 12.913 5.793 12.913 12.913v456.174z"/><path d="M415.178 29.951H96.822a7.5 7.5 0 0 0-7.5 7.5v436.098a7.5 7.5 0 0 0 7.5 7.5h318.356a7.5 7.5 0 0 0 7.5-7.5V37.451a7.5 7.5 0 0 0-7.5-7.5zM151.089 204.832v198.056a100.4 100.4 0 0 0-.453 9.447v53.714h-46.314V204.386h46.772c0 .149-.005.297-.005.446zM200.471 461.5c1.2-8.149 8.24-14.424 16.717-14.424h9.883c8.478 0 15.517 6.275 16.717 14.424h-43.317zm146.838 4.549h-88.34v-2.076c0-17.588-14.309-31.897-31.897-31.897h-9.883c-17.588 0-31.898 14.309-31.898 31.897v2.076h-19.655v-53.714c0-1.678.056-3.361.154-5.036a7.48 7.48 0 0 0 .299-2.08v-1.664a82.625 82.625 0 0 1 2.598-13.701c25.766 15.397 59.979 24.037 96.375 24.037 29.96 0 58.794-5.926 82.602-16.839l-.355 68.997zM245.418 324.5h-9.816v-22.767a58.443 58.443 0 0 0 10.858 1.033h10.019c4.924 0 9.826-.617 14.571-1.834a7.5 7.5 0 0 0 5.401-9.128 7.498 7.498 0 0 0-9.128-5.401 43.668 43.668 0 0 1-10.844 1.363H246.46c-25.458 0-46.169-22.071-46.169-49.201v-32.724c0-27.129 20.711-49.201 46.169-49.201h10.019c25.458 0 46.169 22.071 46.169 49.201V324.5h-19.072a7.5 7.5 0 0 0 0 15h19.072v55.948c-12.036 2.254-24.678 3.443-37.586 3.443-34.833 0-67.254-8.381-90.877-23.25 10.986-21.758 31.4-36.14 54.407-36.14h16.826a7.5 7.5 0 0 0 0-15.001zm162.26 141.549h-45.369l.417-81.234c0-.05-.008-.099-.009-.149.001-.061.009-.12.009-.181l-.001-71.499a7.5 7.5 0 0 0-15 0l.001 67.337c-9.136 4.78-19.265 8.695-30.079 11.68V205.841c0-35.4-27.44-64.201-61.169-64.201H246.46c-33.729 0-61.169 28.8-61.169 64.201v32.724c0 25.759 14.536 48.01 35.446 58.227a7.549 7.549 0 0 0-.135 1.395v26.771c-22.156 2.547-41.739 15.577-54.513 34.834v-154.96c0-53.139 40.741-96.371 90.817-96.371s90.817 43.232 90.817 96.371l.001 64.493a7.5 7.5 0 0 0 15 0l-.001-64.493c0-20.557-5.326-39.827-14.592-56.374h59.546v317.591h.001zm0-332.591H338.07c-19.426-24.43-48.598-39.997-81.164-39.997-53.368 0-97.628 41.799-104.795 95.924h-47.79V44.951h303.356v88.507h.001z"/></svg>